PathFileType	4	(X/Y/Z)	Patient4_TMGait_0pt2_03_left_20.trc.trc
DataRate	CameraRate	NumFrames	NumMarkers	Units	OrigDataRate	OrigDataStartFrame	OrigNumFrames
48.275862068966	48.275862068966	4	33	mm	48.275862068966	106	       141
Frame#	Time	Sacral			L.Shoulder			Chest			R.Shoulder			Neck			R.ASIS			L.ASIS			R.Thigh.Superior			R.Thigh.Lateral			R.Thigh.Inferior			R.Patella			L.Thigh.Superior			L.Thigh.Lateral			L.Thigh.Inferior			L.Patella			L.Shank.Superior			L.Shank.Lateral			L.Shank.Inferior			R.Shank.Superior			R.Shank.Lateral			R.Shank.Inferior			R.Heel			R.Midfoot.Superior			R.Midfoot.Lateral			R.Toe			L.Heel			L.Midfoot.Lateral			L.Midfoot.Superior			L.Toe			L.Elbow			L.Wrist			R.Elbow			R.Wrist			
		X1	Y1	Z1	X2	Y2	Z2	X3	Y3	Z3	X4	Y4	Z4	X5	Y5	Z5	X6	Y6	Z6	X7	Y7	Z7	X8	Y8	Z8	X9	Y9	Z9	X10	Y10	Z10	X11	Y11	Z11	X12	Y12	Z12	X13	Y13	Z13	X14	Y14	Z14	X15	Y15	Z15	X16	Y16	Z16	X17	Y17	Z17	X18	Y18	Z18	X19	Y19	Z19	X20	Y20	Z20	X21	Y21	Z21	X22	Y22	Z22	X23	Y23	Z23	X24	Y24	Z24	X25	Y25	Z25	X26	Y26	Z26	X27	Y27	Z27	X28	Y28	Z28	X29	Y29	Z29	X30	Y30	Z30	X31	Y31	Z31	X32	Y32	Z32	X33	Y33	Z33	

106	44.055000000000	892.232395763997	996.119284737537	642.472240797343	1077.098974295650	1419.191389210002	443.903133918792	1190.894855974482	1340.039113027612	592.176348455458	1133.625851941175	1419.143955930086	773.527975030835	1087.754466620885	1480.023292794400	599.705489490446	1134.492171004270	922.935000457929	728.980540908457	1086.281621988150	953.249019693811	460.144141316641	1179.920001055463	727.551123737493	671.578272103088	1114.160753964540	608.672571147852	731.398548579315	1178.433780275629	566.280427791565	634.292272218246	1182.036623378715	469.536678188338	632.093598842702	1177.851007419775	777.863102713568	480.369649251906	1128.353514454162	644.964631349893	388.825598135410	1241.875884689238	592.927029505484	451.058922150511	1258.107230509258	506.130349487742	433.777943858920	1195.289737157152	439.486348765725	414.410409195857	1056.808611455934	392.672604172225	362.594743408161	1059.439514287620	255.151173251994	393.445153602874	1133.166168129559	383.707363625868	641.849503764923	1056.894030657957	293.054188309241	717.129619156267	1058.856845207321	197.200012508738	645.859730455592	889.846723186939	50.504761290742	646.791368245102	1066.575095427293	96.719880641101	650.955759672702	984.182894404650	40.476041453656	704.751439950771	1187.792099682804	39.487486779785	659.233629999473	880.083785852932	173.068598608423	427.709366331673	933.624030212686	141.527920164888	339.316880865379	1038.225575422087	150.722904801180	355.908959048379	1116.935567585012	47.436842797212	308.766695908325	929.150033004655	1100.471550167267	342.022867360415	854.745931448126	851.301448951914	370.983742034438	1242.513751452885	1108.760474994751	914.942587844531	1479.690133677299	1161.780864256120	851.939185407305	
107	44.075714285714	892.022722181607	995.303597633446	645.084756828054	1072.527597723630	1419.419266667235	445.548892088251	1188.886329303796	1340.177285467209	591.789609889309	1134.388900043905	1418.711112276752	774.050449626611	1084.566584024435	1479.860709732688	601.507951298209	1135.164218553628	922.092936700039	728.509684657013	1084.077141219289	953.546681176062	460.291117859356	1179.462740178628	726.579749620940	670.568109978178	1114.190270231607	607.743712124784	730.918778331706	1177.694047288463	565.378803463107	633.300105804929	1181.003804627903	468.422632569902	631.117049481428	1176.090060734609	778.428250721084	479.616964192218	1126.364612167914	645.268526831882	388.399933361208	1240.207892921489	593.838857283458	449.861380249386	1257.635424047188	508.265382396175	432.510749456746	1197.693933088631	440.514060571961	413.045098997572	1062.081014976003	387.227172688579	360.976891274761	1071.787884472728	249.974151945282	391.651839613812	1131.491705023546	382.752919957189	641.150248632844	1054.897841616125	292.626534214192	716.858980225553	1055.716983869770	196.786351963023	645.648936538358	885.741529494009	50.791216417342	646.939792411789	1062.534394064375	96.733430269523	651.045505564605	980.097275378330	40.583579774479	704.861232104270	1183.651095035341	39.400604148231	659.248560954741	897.257070466273	156.502461970567	425.591001027497	953.042323433063	130.230687713534	336.737706077585	1056.634593708217	146.324736708705	353.626324702157	1142.382049519896	49.556461143684	305.102680651118	920.513587524842	1102.564124506991	346.811546543609	843.230654898976	854.609737333191	379.940485495043	1258.403755052784	1113.553093228683	910.362443093305	1488.013791177678	1185.158284987589	839.632734721449	
108	44.096428571429	891.857048055391	995.134184448200	647.336949776356	1067.982190047359	1420.217469029873	447.092785999982	1186.960492293546	1340.830322886985	591.155459599252	1135.387684370366	1418.820189748524	774.302030370472	1081.507224797971	1480.206665324594	603.189166789325	1135.685811599979	921.652566915898	727.664088092923	1081.853889370483	954.409719194905	460.083545010345	1178.357883310013	725.836585599004	669.425331606016	1113.361345211974	607.259720165440	730.483664748715	1175.983883257617	564.700189084259	632.417084575265	1178.887092765588	467.680020754483	630.363219439360	1173.699295867960	778.935484374329	478.510264768815	1123.346685754846	645.733574633215	387.501176219731	1237.164666215627	594.490746303224	448.267500595903	1255.700068173766	510.411138505239	430.921631423009	1199.042263685956	441.641815368828	411.311534855241	1067.232056926715	381.277087727294	358.278081806312	1084.459133158566	244.680762199403	389.069494920290	1128.966560109154	382.174152387698	640.645414065490	1052.233079025937	292.389391522447	716.741751277044	1052.214205327321	196.577469299167	645.546085435439	881.601062920608	51.056141336674	647.095122307165	1058.468135678201	96.767576437730	651.182990550183	975.987446330593	40.670169301401	704.973251385082	1179.484601380755	39.324713171068	659.251522700940	915.524837704059	139.872019792772	421.876942381418	973.784621188112	118.445133243428	333.094639959515	1075.988461726325	141.441600997183	350.745467073318	1168.694068348267	51.292289694030	301.950007741154	912.419489992351	1105.004583846473	351.487771033190	833.245244420879	858.006190315518	388.774892265788	1274.055218448887	1119.670491575662	905.313359169734	1494.716226102752	1208.550346345420	827.219438833400	
109	44.117142857143	891.741524948876	995.589235960791	649.196184509774	1063.501274419249	1421.552220969471	448.479288361943	1185.116929727780	1341.999017076140	590.263306925977	1136.546390520157	1419.478580771945	774.251645751309	1078.575066167434	1481.045473074284	604.682970228887	1136.062840036677	921.640397548607	726.500355529990	1079.679686377951	955.797456208535	459.556972841283	1176.657314681874	725.341380590014	668.233437989077	1111.699293429601	607.225016715587	730.147151088158	1173.356488636839	564.254766762456	631.716617825142	1175.733254906434	467.312994426475	629.897073443937	1170.779349412788	779.395083071747	477.120712256725	1119.468829963477	646.377465288277	386.165861360495	1232.943692612980	594.925185338751	446.338116274759	1252.497001439942	512.576596525616	429.072242506723	1199.426086830242	442.921994513659	409.297194330675	1072.271965885698	375.176011557278	354.674596054742	1097.205141942028	239.660264217978	385.881233072952	1125.627395439858	381.972263307955	640.382240250789	1048.915867699571	292.347310533510	716.805402333154	1048.366026676108	196.575924724137	645.571769221663	877.430503870313	51.304287091962	647.255331830642	1054.379516505533	96.821691211649	651.364439260788	971.853507523462	40.737976043560	705.085876526507	1175.294645502958	39.258182514486	659.242138461208	934.501415698759	124.064514821957	416.912219395583	995.337194713168	106.854669310291	328.691582041464	1095.829862655030	136.454486098900	347.455370599525	1195.081032588529	52.693047525767	299.468189767813	904.795282578473	1107.803156936242	355.947859010204	824.539566209566	861.544490710161	397.311897394609	1289.206447301607	1127.003652409921	899.824181905672	1499.849365382764	1231.679477773328	814.866844376250	
